<svg version="1.0" xmlns="http://www.w3.org/2000/svg"
 width="295.000000pt" height="300.000000pt" viewBox="0 0 295.000000 300.000000"
 preserveAspectRatio="xMidYMid meet">
<g transform="translate(0.000000,300.000000) scale(0.100000,-0.100000)"
fill="#00FFFF" stroke="none">
<path d="M1305 2994 c-251 -38 -533 -144 -726 -273 -324 -217 -519 -529 -570
-909 -17 -129 -6 -441 21 -565 98 -460 335 -749 730 -892 322 -115 801 -106
1055 22 285 144 531 475 613 828 71 301 6 623 -179 890 -61 88 -203 226 -281
273 -266 158 -763 129 -1064 -63 -221 -142 -354 -406 -355 -704 -1 -202 56
-351 187 -490 247 -263 626 -324 896 -144 157 104 241 268 241 468 -1 212 -88
371 -241 443 -52 25 -68 27 -182 27 -198 0 -315 -46 -341 -136 -24 -77 22
-155 99 -169 28 -5 60 0 117 17 156 46 226 25 260 -78 22 -65 17 -178 -10
-234 -30 -62 -94 -119 -161 -145 -49 -18 -74 -21 -149 -18 -81 3 -98 8 -175
45 -110 53 -180 121 -229 223 -35 73 -36 78 -36 190 0 127 18 199 78 313 59
113 205 211 382 258 99 26 328 32 415 10 260 -65 480 -396 481 -726 1 -384
-291 -798 -623 -881 -100 -25 -391 -30 -511 -10 -420 71 -664 315 -753 751
-21 104 -29 354 -15 455 64 437 343 741 816 893 167 53 291 71 454 64 249 -11
454 -75 653 -206 151 -99 238 -199 318 -366 161 -333 203 -715 114 -1024 -45
-154 -114 -292 -207 -417 -107 -142 -313 -318 -495 -425 -99 -58 -123 -84
-129 -144 -10 -83 46 -145 131 -145 46 0 64 7 150 60 466 284 736 636 838
1091 20 92 23 130 23 329 0 261 -14 350 -91 579 -81 240 -177 406 -313 542
-130 130 -337 254 -531 318 -173 56 -276 73 -480 76 -107 2 -208 1 -225 -1z"/>
</g>
</svg>
